<svg width="290" height="52" viewBox="0 0 290 52" fill="none" xmlns="http://www.w3.org/2000/svg">
<g clip-path="url(#clip0_103_2)">
<path d="M2.04 40C1.77333 39.68 1.56 39.2933 1.4 38.84C1.24 38.3867 1.16 37.92 1.16 37.44C2.04 37.44 2.65333 37.2933 3 37C3.37333 36.7067 3.56 36.1867 3.56 35.44V16.64C3.56 15.8933 3.37333 15.3733 3 15.08C2.65333 14.76 2.04 14.6 1.16 14.6C1.16 14.1467 1.24 13.6933 1.4 13.24C1.56 12.7867 1.77333 12.4 2.04 12.08H11.76C12.0267 12.4 12.24 12.7867 12.4 13.24C12.56 13.6933 12.64 14.1467 12.64 14.6C11.76 14.6 11.1333 14.76 10.76 15.08C10.4133 15.3733 10.24 15.8933 10.24 16.64V35.44C10.24 36.1867 10.4133 36.7067 10.76 37C11.1333 37.2933 11.76 37.44 12.64 37.44C12.64 37.92 12.56 38.3867 12.4 38.84C12.24 39.2933 12.0267 39.68 11.76 40H2.04ZM37.4691 38.92C37.0691 39.32 36.3491 39.64 35.3091 39.88C34.2957 40.12 33.3224 40.24 32.3891 40.24C31.2424 40.24 30.3891 40.0267 29.8291 39.6C29.2957 39.1733 29.0291 38.4933 29.0291 37.56V25.08C29.0291 24.04 28.8024 23.2933 28.3491 22.84C27.8957 22.3867 27.2957 22.16 26.5491 22.16C25.4557 22.16 24.5357 22.6 23.7891 23.48V35.68C23.7891 36.4533 23.9491 37.0133 24.2691 37.36C24.6157 37.7067 25.1891 37.88 25.9891 37.88C25.9891 38.68 25.6824 39.3867 25.0691 40H15.9891C15.3491 39.36 15.0291 38.6533 15.0291 37.88C15.8291 37.88 16.4024 37.7067 16.7491 37.36C17.0957 37.0133 17.2691 36.4533 17.2691 35.68V24C17.2691 23.28 17.0691 22.7733 16.6691 22.48C16.2691 22.16 15.5757 22 14.5891 22V20.2C15.4424 19.72 16.6424 19.28 18.1891 18.88C19.7624 18.48 20.9491 18.28 21.7491 18.28C22.3624 18.28 22.8291 18.48 23.1491 18.88C23.4957 19.2533 23.6957 19.9733 23.7491 21.04C24.4424 20.1867 25.3091 19.52 26.3491 19.04C27.3891 18.5333 28.5624 18.28 29.8691 18.28C31.7891 18.28 33.2024 18.7733 34.1091 19.76C35.0424 20.72 35.5091 22.3067 35.5091 24.52V35.44C35.5091 36.7467 36.1491 37.52 37.4291 37.76L37.4691 38.92ZM47.8822 29.24L49.7222 36.24L51.5622 29.24L53.1222 23.8C53.2289 23.3733 53.2822 23.0533 53.2822 22.84C53.2822 22.28 53.0955 21.8667 52.7222 21.6C52.3755 21.3067 51.8689 21.16 51.2022 21.16C51.2022 20.0667 51.4555 19.2667 51.9622 18.76H59.7222C60.2555 19.2933 60.5222 20.0933 60.5222 21.16C59.8555 21.16 59.3489 21.32 59.0022 21.64C58.6555 21.96 58.3622 22.4933 58.1222 23.24L53.9622 36C53.5089 37.5733 53.0022 38.68 52.4422 39.32C51.8822 39.96 51.0289 40.28 49.8822 40.28H45.7222L39.4022 23.24C39.1089 22.4667 38.8155 21.9333 38.5222 21.64C38.2289 21.32 37.7489 21.16 37.0822 21.16C37.0822 20.12 37.3622 19.32 37.9222 18.76H47.0422C47.3355 19.0533 47.5622 19.4267 47.7222 19.88C47.8822 20.3067 47.9622 20.7333 47.9622 21.16C47.4022 21.16 46.9489 21.32 46.6022 21.64C46.2555 21.9333 46.0822 22.3733 46.0822 22.96C46.0822 23.1467 46.1355 23.4267 46.2422 23.8L47.8822 29.24ZM70.095 40.52C67.1617 40.52 64.815 39.6 63.055 37.76C61.295 35.8933 60.415 33.24 60.415 29.8C60.415 27.3467 60.8283 25.2533 61.655 23.52C62.5083 21.7867 63.695 20.48 65.215 19.6C66.735 18.72 68.495 18.28 70.495 18.28C72.415 18.28 74.095 18.7067 75.535 19.56C77.0017 20.3867 78.135 21.6133 78.935 23.24C79.7617 24.8667 80.175 26.84 80.175 29.16C80.175 31.5867 79.7483 33.6533 78.895 35.36C78.0683 37.0667 76.895 38.36 75.375 39.24C73.855 40.0933 72.095 40.52 70.095 40.52ZM70.415 37.64C71.3483 37.64 72.0417 37.1067 72.495 36.04C72.9483 34.9733 73.175 33 73.175 30.12C73.175 27.6933 73.055 25.8267 72.815 24.52C72.575 23.2133 72.2417 22.32 71.815 21.84C71.3883 21.36 70.8417 21.12 70.175 21.12C69.2417 21.12 68.535 21.6533 68.055 22.72C67.6017 23.7867 67.375 25.7867 67.375 28.72C67.375 31.12 67.495 32.9733 67.735 34.28C67.975 35.56 68.3083 36.44 68.735 36.92C69.1883 37.4 69.7483 37.64 70.415 37.64ZM91.4509 11.72C91.4509 12.8667 91.0909 13.7867 90.3709 14.48C89.6776 15.1467 88.7443 15.48 87.5709 15.48C86.4243 15.48 85.5043 15.1467 84.8109 14.48C84.1443 13.7867 83.8109 12.8667 83.8109 11.72C83.8109 10.6 84.1576 9.69333 84.8509 9C85.5709 8.30666 86.5043 7.96 87.6509 7.96C88.7976 7.96 89.7176 8.30666 90.4109 9C91.1043 9.69333 91.4509 10.6 91.4509 11.72ZM90.6909 35.68C90.6909 36.4533 90.8776 37.0133 91.2509 37.36C91.6509 37.68 92.2509 37.84 93.0509 37.84C93.0509 38.6667 92.7443 39.3867 92.1309 40H83.0909C82.4776 39.3867 82.1709 38.6667 82.1709 37.84C82.9709 37.84 83.5443 37.68 83.8909 37.36C84.2643 37.0133 84.4509 36.44 84.4509 35.64V24.04C84.4509 23.2933 84.2643 22.76 83.8909 22.44C83.5443 22.12 82.8509 21.96 81.8109 21.96V20.2C82.4509 19.8 83.5309 19.3867 85.0509 18.96C86.5976 18.5067 87.9043 18.28 88.9709 18.28C89.5843 18.28 90.0243 18.4267 90.2909 18.72C90.5576 18.9867 90.6909 19.4533 90.6909 20.12V35.68ZM110.552 34.92C110.765 35.16 110.939 35.48 111.072 35.88C111.232 36.28 111.312 36.6267 111.312 36.92C111.312 37.5067 111.005 38.08 110.392 38.64C109.779 39.2 108.952 39.6667 107.912 40.04C106.899 40.4133 105.792 40.6 104.592 40.6C102.645 40.6 100.925 40.16 99.4319 39.28C97.9385 38.4 96.7785 37.1333 95.9519 35.48C95.1252 33.8267 94.7119 31.8667 94.7119 29.6C94.7119 27.28 95.1519 25.2667 96.0319 23.56C96.9385 21.8533 98.1785 20.5467 99.7519 19.64C101.352 18.7333 103.139 18.28 105.112 18.28C107.085 18.28 108.619 18.76 109.712 19.72C110.832 20.6533 111.392 21.8533 111.392 23.32C111.392 24.5733 111.072 25.56 110.432 26.28C109.792 26.9733 108.965 27.32 107.952 27.32C107.125 27.32 106.432 27.0133 105.872 26.4C105.312 25.7867 105.032 25.04 105.032 24.16C105.032 23.5733 105.139 23.08 105.352 22.68C105.565 22.28 105.859 21.92 106.232 21.6C105.805 21.36 105.419 21.24 105.072 21.24C104.165 21.24 103.365 21.7867 102.672 22.88C101.979 23.9467 101.632 25.72 101.632 28.2C101.632 31.0267 102.045 33.0667 102.872 34.32C103.699 35.5467 104.912 36.16 106.512 36.16C107.259 36.16 107.992 36.0533 108.712 35.84C109.459 35.6267 110.072 35.32 110.552 34.92ZM124.948 35.92C126.628 35.92 128.188 35.3867 129.628 34.32C129.842 34.5333 130.028 34.8533 130.188 35.28C130.348 35.7067 130.428 36.08 130.428 36.4C130.428 36.88 130.108 37.44 129.468 38.08C128.828 38.6933 127.935 39.2267 126.788 39.68C125.668 40.1333 124.402 40.36 122.988 40.36C121.015 40.36 119.282 39.9333 117.788 39.08C116.322 38.2267 115.188 36.9867 114.388 35.36C113.588 33.7333 113.188 31.8133 113.188 29.6C113.188 27.3333 113.615 25.3467 114.468 23.64C115.348 21.9333 116.548 20.6267 118.068 19.72C119.588 18.7867 121.308 18.32 123.228 18.32C125.655 18.32 127.588 19.0267 129.028 20.44C130.468 21.8533 131.188 23.8133 131.188 26.32C131.188 27.4933 131.002 28.4267 130.628 29.12C130.255 29.7867 129.588 30.12 128.628 30.12H119.988C120.148 33.9867 121.802 35.92 124.948 35.92ZM122.988 21.08C122.162 21.08 121.468 21.5467 120.908 22.48C120.348 23.3867 120.042 24.92 119.988 27.08H124.028C124.455 27.08 124.735 26.9333 124.868 26.64C125.002 26.3467 125.068 25.8933 125.068 25.28C125.068 23.7067 124.882 22.6133 124.508 22C124.135 21.3867 123.628 21.08 122.988 21.08ZM166.787 12.08C167.08 12.4 167.307 12.7867 167.467 13.24C167.627 13.6933 167.707 14.1467 167.707 14.6C166.8 14.6 166.12 14.76 165.667 15.08C165.24 15.4 165.027 15.92 165.027 16.64V35.44C165.027 36.1867 165.227 36.7067 165.627 37C166.053 37.2933 166.747 37.44 167.707 37.44C167.707 37.92 167.627 38.3867 167.467 38.84C167.307 39.2933 167.08 39.68 166.787 40H156.867C156.6 39.68 156.387 39.2933 156.227 38.84C156.067 38.3867 155.987 37.92 155.987 37.44C156.92 37.44 157.613 37.2933 158.067 37C158.52 36.68 158.747 36.16 158.747 35.44V18.88L151.947 36.04C151.6 36.8667 151.12 37.44 150.507 37.76C149.893 38.0533 149.093 38.2 148.107 38.2L140.187 18.88V35.44C140.187 36.16 140.44 36.68 140.947 37C141.48 37.2933 142.28 37.44 143.347 37.44C143.347 37.92 143.267 38.3867 143.107 38.84C142.947 39.2933 142.733 39.68 142.467 40H134.147C133.88 39.68 133.667 39.2933 133.507 38.84C133.347 38.3867 133.267 37.92 133.267 37.44C134.253 37.44 134.973 37.2933 135.427 37C135.88 36.68 136.107 36.16 136.107 35.44V16.64C136.107 15.92 135.867 15.4 135.387 15.08C134.907 14.76 134.2 14.6 133.267 14.6C133.267 14.1467 133.347 13.6933 133.507 13.24C133.667 12.7867 133.893 12.4 134.187 12.08H140.467C141.72 12.08 142.72 12.2667 143.467 12.64C144.213 12.9867 144.813 13.6933 145.267 14.76L149.507 25.2L151.107 30.16L152.627 25.2L157.667 12.08H166.787ZM169.63 34.36C169.63 32.5733 170.217 31.16 171.39 30.12C172.563 29.08 174.297 28.56 176.59 28.56C177.39 28.56 178.203 28.64 179.03 28.8C179.883 28.96 180.577 29.1733 181.11 29.44V24.12C181.11 23.0533 180.843 22.2933 180.31 21.84C179.777 21.36 179.057 21.12 178.15 21.12C177.27 21.12 176.55 21.3333 175.99 21.76C176.497 21.92 176.87 22.2 177.11 22.6C177.377 22.9733 177.51 23.4 177.51 23.88C177.51 24.7333 177.203 25.4267 176.59 25.96C175.977 26.4933 175.203 26.76 174.27 26.76C173.257 26.76 172.443 26.4667 171.83 25.88C171.217 25.2933 170.91 24.5333 170.91 23.6C170.91 22.6667 171.23 21.7867 171.87 20.96C172.51 20.1333 173.483 19.4667 174.79 18.96C176.123 18.4533 177.763 18.2 179.71 18.2C182.35 18.2 184.35 18.7467 185.71 19.84C187.07 20.9067 187.75 22.48 187.75 24.56V35.16C187.75 36.44 188.363 37.2133 189.59 37.48V38.76C189.243 39.24 188.67 39.6133 187.87 39.88C187.07 40.1467 186.257 40.28 185.43 40.28C183.617 40.28 182.337 39.6533 181.59 38.4C180.977 38.9333 180.23 39.3867 179.35 39.76C178.47 40.1067 177.47 40.28 176.35 40.28C174.35 40.28 172.723 39.7333 171.47 38.64C170.243 37.52 169.63 36.0933 169.63 34.36ZM181.11 32.52C180.817 32.3333 180.457 32.1733 180.03 32.04C179.63 31.9067 179.243 31.84 178.87 31.84C178.123 31.84 177.51 32.08 177.03 32.56C176.55 33.0133 176.31 33.68 176.31 34.56C176.31 35.28 176.55 35.88 177.03 36.36C177.51 36.8133 178.15 37.04 178.95 37.04C179.35 37.04 179.737 36.9867 180.11 36.88C180.51 36.7467 180.843 36.5867 181.11 36.4V32.52ZM207.114 34.92C207.328 35.16 207.501 35.48 207.634 35.88C207.794 36.28 207.874 36.6267 207.874 36.92C207.874 37.5067 207.568 38.08 206.954 38.64C206.341 39.2 205.514 39.6667 204.474 40.04C203.461 40.4133 202.354 40.6 201.154 40.6C199.208 40.6 197.488 40.16 195.994 39.28C194.501 38.4 193.341 37.1333 192.514 35.48C191.688 33.8267 191.274 31.8667 191.274 29.6C191.274 27.28 191.714 25.2667 192.594 23.56C193.501 21.8533 194.741 20.5467 196.314 19.64C197.914 18.7333 199.701 18.28 201.674 18.28C203.648 18.28 205.181 18.76 206.274 19.72C207.394 20.6533 207.954 21.8533 207.954 23.32C207.954 24.5733 207.634 25.56 206.994 26.28C206.354 26.9733 205.528 27.32 204.514 27.32C203.688 27.32 202.994 27.0133 202.434 26.4C201.874 25.7867 201.594 25.04 201.594 24.16C201.594 23.5733 201.701 23.08 201.914 22.68C202.128 22.28 202.421 21.92 202.794 21.6C202.368 21.36 201.981 21.24 201.634 21.24C200.728 21.24 199.928 21.7867 199.234 22.88C198.541 23.9467 198.194 25.72 198.194 28.2C198.194 31.0267 198.608 33.0667 199.434 34.32C200.261 35.5467 201.474 36.16 203.074 36.16C203.821 36.16 204.554 36.0533 205.274 35.84C206.021 35.6267 206.634 35.32 207.114 34.92ZM232.031 38.92C231.071 39.8 229.604 40.24 227.631 40.24C224.938 40.24 223.591 39.4 223.591 37.72V24.84C223.591 23.9867 223.351 23.3333 222.871 22.88C222.418 22.4 221.791 22.16 220.991 22.16C220.458 22.16 219.898 22.3333 219.311 22.68C218.751 23.0267 218.338 23.4667 218.071 24V35.68C218.071 36.4533 218.231 37.0133 218.551 37.36C218.898 37.68 219.471 37.84 220.271 37.84C220.271 38.6667 219.964 39.3867 219.351 40H210.511C209.898 39.3867 209.591 38.6667 209.591 37.84C210.391 37.84 210.951 37.68 211.271 37.36C211.618 37.0133 211.791 36.4533 211.791 35.68V14C211.791 13.3333 211.604 12.84 211.231 12.52C210.858 12.2 210.151 12.04 209.111 12.04V10.4C210.071 9.89333 211.284 9.45333 212.751 9.08C214.244 8.68 215.444 8.48 216.351 8.48C216.964 8.48 217.404 8.62667 217.671 8.92C217.938 9.18667 218.071 9.65333 218.071 10.32V18.2L217.991 21.4C218.711 20.4667 219.618 19.7067 220.711 19.12C221.831 18.5333 223.058 18.24 224.391 18.24C226.258 18.24 227.671 18.7467 228.631 19.76C229.591 20.7467 230.071 22.2133 230.071 24.16V35.36C230.071 36.0267 230.231 36.56 230.551 36.96C230.898 37.36 231.378 37.6267 231.991 37.76L232.031 38.92ZM243.013 11.72C243.013 12.8667 242.653 13.7867 241.933 14.48C241.24 15.1467 240.307 15.48 239.133 15.48C237.987 15.48 237.067 15.1467 236.373 14.48C235.707 13.7867 235.373 12.8667 235.373 11.72C235.373 10.6 235.72 9.69333 236.413 9C237.133 8.30666 238.067 7.96 239.213 7.96C240.36 7.96 241.28 8.30666 241.973 9C242.667 9.69333 243.013 10.6 243.013 11.72ZM242.253 35.68C242.253 36.4533 242.44 37.0133 242.813 37.36C243.213 37.68 243.813 37.84 244.613 37.84C244.613 38.6667 244.307 39.3867 243.693 40H234.653C234.04 39.3867 233.733 38.6667 233.733 37.84C234.533 37.84 235.107 37.68 235.453 37.36C235.827 37.0133 236.013 36.44 236.013 35.64V24.04C236.013 23.2933 235.827 22.76 235.453 22.44C235.107 22.12 234.413 21.96 233.373 21.96V20.2C234.013 19.8 235.093 19.3867 236.613 18.96C238.16 18.5067 239.467 18.28 240.533 18.28C241.147 18.28 241.587 18.4267 241.853 18.72C242.12 18.9867 242.253 19.4533 242.253 20.12V35.68ZM268.914 38.92C268.514 39.32 267.794 39.64 266.754 39.88C265.741 40.12 264.768 40.24 263.834 40.24C262.688 40.24 261.834 40.0267 261.274 39.6C260.741 39.1733 260.474 38.4933 260.474 37.56V25.08C260.474 24.04 260.248 23.2933 259.794 22.84C259.341 22.3867 258.741 22.16 257.994 22.16C256.901 22.16 255.981 22.6 255.234 23.48V35.68C255.234 36.4533 255.394 37.0133 255.714 37.36C256.061 37.7067 256.634 37.88 257.434 37.88C257.434 38.68 257.128 39.3867 256.514 40H247.434C246.794 39.36 246.474 38.6533 246.474 37.88C247.274 37.88 247.848 37.7067 248.194 37.36C248.541 37.0133 248.714 36.4533 248.714 35.68V24C248.714 23.28 248.514 22.7733 248.114 22.48C247.714 22.16 247.021 22 246.034 22V20.2C246.888 19.72 248.088 19.28 249.634 18.88C251.208 18.48 252.394 18.28 253.194 18.28C253.808 18.28 254.274 18.48 254.594 18.88C254.941 19.2533 255.141 19.9733 255.194 21.04C255.888 20.1867 256.754 19.52 257.794 19.04C258.834 18.5333 260.008 18.28 261.314 18.28C263.234 18.28 264.648 18.7733 265.554 19.76C266.488 20.72 266.954 22.3067 266.954 24.52V35.44C266.954 36.7467 267.594 37.52 268.874 37.76L268.914 38.92ZM282.488 35.92C284.168 35.92 285.728 35.3867 287.168 34.32C287.381 34.5333 287.568 34.8533 287.728 35.28C287.888 35.7067 287.968 36.08 287.968 36.4C287.968 36.88 287.648 37.44 287.008 38.08C286.368 38.6933 285.474 39.2267 284.328 39.68C283.208 40.1333 281.941 40.36 280.528 40.36C278.554 40.36 276.821 39.9333 275.328 39.08C273.861 38.2267 272.728 36.9867 271.928 35.36C271.128 33.7333 270.728 31.8133 270.728 29.6C270.728 27.3333 271.154 25.3467 272.008 23.64C272.888 21.9333 274.088 20.6267 275.608 19.72C277.128 18.7867 278.848 18.32 280.768 18.32C283.194 18.32 285.128 19.0267 286.568 20.44C288.008 21.8533 288.728 23.8133 288.728 26.32C288.728 27.4933 288.541 28.4267 288.168 29.12C287.794 29.7867 287.128 30.12 286.168 30.12H277.528C277.688 33.9867 279.341 35.92 282.488 35.92ZM280.528 21.08C279.701 21.08 279.008 21.5467 278.448 22.48C277.888 23.3867 277.581 24.92 277.528 27.08H281.568C281.994 27.08 282.274 26.9333 282.408 26.64C282.541 26.3467 282.608 25.8933 282.608 25.28C282.608 23.7067 282.421 22.6133 282.048 22C281.674 21.3867 281.168 21.08 280.528 21.08Z" fill="url(#paint0_angular_103_2)"/>
</g>
<defs>
<radialGradient id="paint0_angular_103_2" cx="0" cy="0" r="1" gradientUnits="userSpaceOnUse" gradientTransform="translate(142.5 29.5) rotate(72.2161) scale(27.8298 155.205)">
<stop stop-color="#EC4899"/>
<stop offset="1" stop-color="#9333EA"/>
</radialGradient>
<clipPath id="clip0_103_2">
<rect width="290" height="52" fill="white"/>
</clipPath>
</defs>
</svg>
